<svg width="48" height="48" viewBox="0 0 48 48" fill="none" xmlns="http://www.w3.org/2000/svg">
<rect opacity="0.1" width="48" height="48" rx="10" fill="#F87A06"/>
<path d="M17 34V14H19V16H33L31 21L33 26H19V34H17ZM24.5 23C25.05 23 25.521 22.804 25.913 22.412C26.305 22.02 26.5007 21.5493 26.5 21C26.5 20.45 26.304 19.979 25.912 19.587C25.52 19.195 25.0493 18.9993 24.5 19C23.95 19 23.479 19.196 23.087 19.588C22.695 19.98 22.4993 20.4507 22.5 21C22.5 21.55 22.696 22.021 23.088 22.413C23.48 22.805 23.9507 23.0007 24.5 23Z" fill="#F87A06"/>
</svg>
