<svg width="48" height="48" viewBox="0 0 48 48" fill="none" xmlns="http://www.w3.org/2000/svg">
<rect opacity="0.1" width="48" height="48" rx="10" fill="#52B802"/>
<path d="M14 32V26C14 25.55 14.0917 25.1417 14.275 24.775C14.4583 24.4083 14.7 24.0833 15 23.8V21C15 20.1667 15.2917 19.4583 15.875 18.875C16.4583 18.2917 17.1667 18 18 18H22C22.3833 18 22.7417 18.071 23.075 18.213C23.4083 18.355 23.7167 18.5507 24 18.8C24.2833 18.55 24.5917 18.3543 24.925 18.213C25.2583 18.0717 25.6167 18.0007 26 18H30C30.8333 18 31.5417 18.2917 32.125 18.875C32.7083 19.4583 33 20.1667 33 21V23.8C33.3 24.0833 33.5417 24.4083 33.725 24.775C33.9083 25.1417 34 25.55 34 26V32H32V30H16V32H14ZM25 23H31V21C31 20.7167 30.904 20.479 30.712 20.287C30.52 20.095 30.2827 19.9993 30 20H26C25.7167 20 25.479 20.096 25.287 20.288C25.095 20.48 24.9993 20.7173 25 21V23ZM17 23H23V21C23 20.7167 22.904 20.479 22.712 20.287C22.52 20.095 22.2827 19.9993 22 20H18C17.7167 20 17.479 20.096 17.287 20.288C17.095 20.48 16.9993 20.7173 17 21V23Z" fill="#52B802"/>
</svg>
