<svg width="48" height="48" viewBox="0 0 48 48" fill="none" xmlns="http://www.w3.org/2000/svg">
<rect opacity="0.1" width="48" height="48" rx="10" fill="#0C2FE7"/>
<g clip-path="url(#clip0_604_159)">
<path d="M32.8911 14.006L32.9971 14L33.1271 14.008L33.2171 14.024L33.3401 14.059L33.4471 14.105L33.5471 14.162L33.6371 14.229L33.7191 14.304L33.7711 14.363L33.8531 14.479L33.9051 14.575C33.9521 14.675 33.9821 14.781 33.9951 14.891L34.0001 14.997C34.0001 15.072 33.9921 15.146 33.9761 15.217L33.9411 15.34L27.4091 33.417C27.2852 33.6866 27.0866 33.9149 26.8369 34.075C26.5871 34.2351 26.2967 34.3201 26.0001 34.32C25.7329 34.3208 25.47 34.2525 25.2371 34.1216C25.0042 33.9907 24.8092 33.8017 24.6711 33.573L24.6061 33.446L21.2541 26.744L14.5841 23.408C14.3373 23.2951 14.1244 23.1194 13.9668 22.8985C13.8092 22.6775 13.7124 22.4191 13.6861 22.149L13.6801 22C13.6801 21.44 13.9811 20.928 14.5211 20.63L14.6611 20.56L32.6781 14.054L32.7841 14.024L32.8911 14.006Z" fill="#0C2FE7"/>
</g>
<defs>
<clipPath id="clip0_604_159">
<rect width="24" height="24" fill="white" transform="translate(12 12)"/>
</clipPath>
</defs>
</svg>
