<svg width="36" height="36" viewBox="0 0 36 36" fill="none" xmlns="http://www.w3.org/2000/svg">
<path d="M17.9514 0H18.0569C18.2763 0.0403125 18.4324 0.140859 18.5252 0.301641C20.125 3.06727 21.7242 5.83477 23.3226 8.60414C23.3303 8.6174 23.3413 8.62841 23.3546 8.63607C23.368 8.64372 23.3831 8.64774 23.3985 8.64773C26.564 8.64914 29.7358 8.64891 32.9139 8.64703C33.1094 8.64703 33.2629 8.67656 33.3745 8.73563C33.9159 9.02461 33.6592 9.50203 33.4075 9.93727C31.8621 12.6115 30.3201 15.2815 28.7817 17.9473C28.7725 17.9635 28.7677 17.9819 28.7678 18.0005C28.768 18.0192 28.773 18.0374 28.7824 18.0534C30.3846 20.828 31.9877 23.5999 33.5917 26.3693C33.8442 26.8052 33.5882 27.3516 33.082 27.3516C29.8434 27.3516 26.6151 27.3516 23.3971 27.3516C23.3828 27.3516 23.3687 27.3554 23.3562 27.3627C23.3438 27.37 23.3334 27.3804 23.3261 27.393C21.7117 30.191 20.106 32.9714 18.509 35.7342C18.4331 35.865 18.2854 35.9536 18.066 36H17.943C17.7213 35.9611 17.56 35.8542 17.4592 35.6794C15.873 32.9348 14.2781 30.173 12.6745 27.3938C12.6672 27.3812 12.6568 27.3707 12.6442 27.3634C12.6316 27.3561 12.6173 27.3523 12.6028 27.3523C9.44385 27.3509 6.2751 27.3511 3.09651 27.353C2.66549 27.353 2.25909 27.1814 2.31674 26.6906C2.33174 26.5622 2.40651 26.3822 2.54104 26.1506C4.1062 23.4455 5.66877 20.7387 7.22877 18.0302C7.23414 18.0211 7.23697 18.0106 7.23697 17.9998C7.23697 17.9891 7.23414 17.9785 7.22877 17.9691C5.67674 15.2756 4.1233 12.5848 2.56846 9.89648C2.32448 9.47461 2.10721 9.01828 2.61557 8.73773C2.72432 8.67773 2.87643 8.64773 3.0719 8.64773C6.24909 8.64867 9.42651 8.64891 12.6042 8.64844C12.6147 8.64842 12.6251 8.64563 12.6343 8.64033C12.6436 8.63503 12.6513 8.62741 12.6569 8.6182C14.2661 5.84133 15.8721 3.06375 17.4747 0.285469C17.5633 0.132187 17.7222 0.0370312 17.9514 0ZM25.0319 16.7196L25.7821 15.4118C25.789 15.3998 25.7926 15.3863 25.7926 15.3726C25.7926 15.3589 25.789 15.3455 25.7821 15.3337L18.0246 1.90406C18.0216 1.89895 18.0173 1.89472 18.0122 1.89177C18.0071 1.88882 18.0013 1.88727 17.9954 1.88727C17.9895 1.88727 17.9837 1.88882 17.9785 1.89177C17.9734 1.89472 17.9692 1.89895 17.9662 1.90406L14.0976 8.60273C14.0949 8.60733 14.0934 8.61256 14.0933 8.61791C14.0933 8.62325 14.0947 8.62852 14.0973 8.63316C14.0999 8.6378 14.1038 8.64167 14.1084 8.64435C14.113 8.64703 14.1183 8.64844 14.1236 8.64844L15.6459 8.64773C15.6564 8.64775 15.6667 8.64503 15.6758 8.63985C15.6849 8.63468 15.6925 8.62722 15.6979 8.6182C16.2492 7.6643 16.8014 6.71016 17.3545 5.75578C17.5661 5.39086 17.8811 5.08922 18.2939 5.34305C18.4124 5.4157 18.5397 5.56969 18.6756 5.805C20.7794 9.45 22.8794 13.0882 24.9756 16.7196C24.9944 16.7524 25.0131 16.7524 25.0319 16.7196ZM17.1323 8.60414C17.1297 8.60861 17.1283 8.61368 17.1283 8.61884C17.1283 8.624 17.1297 8.62908 17.1322 8.63356C17.1348 8.63804 17.1385 8.64177 17.1429 8.64438C17.1474 8.64699 17.1524 8.64839 17.1576 8.64844H18.8409C18.846 8.64839 18.8511 8.64699 18.8556 8.64438C18.86 8.64177 18.8637 8.63804 18.8663 8.63356C18.8688 8.62908 18.8702 8.624 18.8702 8.61884C18.8701 8.61368 18.8688 8.60861 18.8662 8.60414L18.0246 7.15289C18.0219 7.14852 18.0182 7.14491 18.0138 7.1424C18.0093 7.13989 18.0043 7.13857 17.9992 7.13857C17.9941 7.13857 17.9891 7.13989 17.9847 7.1424C17.9803 7.14491 17.9766 7.14852 17.9739 7.15289L17.1323 8.60414ZM20.3631 11.2718C20.3673 11.2719 20.3714 11.2709 20.375 11.2688C20.3786 11.2668 20.3816 11.2638 20.3837 11.2602C20.3858 11.2566 20.3869 11.2526 20.3869 11.2484C20.3868 11.2443 20.3857 11.2402 20.3835 11.2366L19.6164 9.91125C19.6109 9.90143 19.6028 9.89326 19.5932 9.88758C19.5836 9.8819 19.5727 9.87891 19.5616 9.87891H4.04081C4.03538 9.87892 4.03006 9.88036 4.02536 9.88308C4.02067 9.8858 4.01677 9.88971 4.01407 9.89441C4.01136 9.89911 4.00994 9.90444 4.00994 9.90986C4.00994 9.91529 4.01137 9.92062 4.01409 9.92531L7.93682 16.7189C7.93959 16.7237 7.94359 16.7277 7.9484 16.7305C7.95322 16.7333 7.95868 16.7348 7.96424 16.7348C7.9698 16.7348 7.97527 16.7333 7.98008 16.7305C7.98489 16.7277 7.98889 16.7237 7.99166 16.7189L8.74893 15.4034C8.7547 15.3934 8.75774 15.3821 8.75774 15.3706C8.75774 15.3591 8.7547 15.3478 8.74893 15.338C8.15268 14.3105 7.55526 13.282 6.95666 12.2527C6.67541 11.7682 7.01502 11.2641 7.54096 11.2641C11.7939 11.2636 16.068 11.2662 20.3631 11.2718ZM22.6026 23.4858L24.1221 23.4837C24.1323 23.4837 24.1425 23.481 24.1515 23.4758C24.1605 23.4706 24.168 23.4632 24.1734 23.4541L31.9928 9.91336C31.9948 9.9098 31.9959 9.90577 31.9959 9.90168C31.9959 9.8976 31.9948 9.89361 31.9928 9.89011C31.9908 9.88661 31.9879 9.88373 31.9845 9.88176C31.981 9.8798 31.9771 9.87881 31.9732 9.87891H24.1178C24.1117 9.879 24.1057 9.88067 24.1003 9.88377C24.095 9.88686 24.0906 9.89126 24.0876 9.89652C24.0845 9.90179 24.0829 9.90774 24.0829 9.91378C24.0829 9.91982 24.0845 9.92574 24.0876 9.93094L24.8406 11.231C24.8467 11.2413 24.8553 11.2498 24.8656 11.2557C24.876 11.2616 24.8877 11.2647 24.8997 11.2648C26.0453 11.2676 27.191 11.2687 28.3366 11.2683C28.6502 11.2683 28.923 11.3203 29.0678 11.5903C29.2528 11.9341 29.0854 12.1613 28.8752 12.5269C26.7752 16.1672 24.6752 19.8047 22.5752 23.4394C22.5725 23.444 22.5711 23.4493 22.5712 23.4547C22.5712 23.4601 22.5727 23.4654 22.5755 23.4701C22.5782 23.4748 22.5822 23.4787 22.587 23.4815C22.5917 23.4842 22.5971 23.4857 22.6026 23.4858ZM9.45557 14.0984C9.45791 14.1025 9.46128 14.1059 9.46536 14.1082C9.46943 14.1106 9.47406 14.1118 9.47877 14.1118C9.48349 14.1118 9.48811 14.1106 9.49219 14.1082C9.49626 14.1059 9.49964 14.1025 9.50198 14.0984L10.3928 12.555C10.3952 12.5509 10.3964 12.5463 10.3964 12.5416C10.3964 12.5369 10.3952 12.5323 10.3928 12.5283C10.3905 12.5242 10.3871 12.5208 10.383 12.5185C10.3789 12.5161 10.3743 12.5149 10.3696 12.5149L8.58932 12.5156C8.58463 12.5156 8.58001 12.5168 8.57594 12.5192C8.57187 12.5215 8.56849 12.5249 8.56613 12.529C8.56378 12.533 8.56254 12.5376 8.56254 12.5423C8.56254 12.547 8.56377 12.5516 8.56612 12.5557L9.45557 14.0984ZM7.18377 24.6438C6.74995 24.4336 6.81885 24.0012 7.03049 23.6341C9.16518 19.9399 11.3003 16.2443 13.436 12.5473C13.4381 12.5437 13.4392 12.5396 13.4393 12.5355C13.4393 12.5313 13.4382 12.5273 13.4361 12.5237C13.4341 12.5201 13.4311 12.5171 13.4274 12.5151C13.4238 12.513 13.4197 12.512 13.4156 12.5121L11.8926 12.517C11.8816 12.5172 11.8708 12.5199 11.861 12.5247C11.8511 12.5296 11.8425 12.5366 11.8356 12.5452C11.8127 12.5747 11.7857 12.6159 11.7548 12.6689C9.17151 17.1403 6.58846 21.6134 4.00565 26.088C4.00364 26.0914 4.00256 26.0952 4.00252 26.0991C4.00248 26.103 4.00348 26.1068 4.00542 26.1102C4.00735 26.1135 4.01016 26.1163 4.01354 26.1182C4.01691 26.1202 4.02075 26.1212 4.02463 26.1211H11.8975C11.9018 26.1211 11.906 26.1199 11.9096 26.1178C11.9133 26.1156 11.9163 26.1125 11.9185 26.1087C11.9206 26.105 11.9217 26.1007 11.9217 26.0963C11.9218 26.092 11.9207 26.0877 11.9186 26.0838L11.1621 24.7781C11.1537 24.7638 11.1418 24.7519 11.1275 24.7436C11.1132 24.7354 11.097 24.731 11.0805 24.731C9.97565 24.7343 8.86354 24.7338 7.74416 24.7296C7.48635 24.7282 7.29955 24.6996 7.18377 24.6438ZM26.4979 14.1012C26.5002 14.105 26.5033 14.1081 26.5072 14.1103C26.511 14.1125 26.5153 14.1136 26.5197 14.1136C26.5241 14.1136 26.5284 14.1125 26.5323 14.1103C26.5361 14.1081 26.5393 14.105 26.5415 14.1012L27.4338 12.5564C27.436 12.5526 27.4372 12.5482 27.4372 12.5438C27.4372 12.5393 27.436 12.535 27.4338 12.5311C27.4316 12.5273 27.4284 12.5241 27.4246 12.5219C27.4208 12.5196 27.4164 12.5185 27.412 12.5184L25.6239 12.5156C25.6195 12.5156 25.6151 12.5168 25.6113 12.5191C25.6075 12.5213 25.6043 12.5245 25.6021 12.5283C25.5999 12.5322 25.5987 12.5365 25.5987 12.541C25.5987 12.5454 25.5999 12.5498 25.6021 12.5536L26.4979 14.1012ZM14.9132 12.5156C14.9031 12.5156 14.8932 12.5183 14.8844 12.5234C14.8756 12.5284 14.8684 12.5357 14.8633 12.5445L11.7288 17.9733C11.7237 17.982 11.721 17.992 11.721 18.0021C11.721 18.0122 11.7237 18.0222 11.7288 18.0309L14.8612 23.4555C14.8663 23.4643 14.8735 23.4716 14.8823 23.4766C14.8911 23.4817 14.901 23.4844 14.9111 23.4844H21.0888C21.0989 23.4844 21.1088 23.4817 21.1176 23.4766C21.1264 23.4716 21.1336 23.4643 21.1387 23.4555L24.2718 18.0288C24.2769 18.0201 24.2795 18.0101 24.2795 18C24.2795 17.9899 24.2769 17.9799 24.2718 17.9712L21.1387 12.5445C21.1336 12.5357 21.1264 12.5284 21.1176 12.5234C21.1088 12.5183 21.0989 12.5156 21.0888 12.5156H14.9132ZM18.3684 30.6232C18.0815 30.8552 17.6308 30.7238 17.4578 30.4242C15.3264 26.7323 13.1814 23.018 11.0228 19.2811C11.0201 19.2764 11.0162 19.2726 11.0115 19.2699C11.0068 19.2672 11.0015 19.2658 10.9961 19.2658C10.9907 19.2658 10.9854 19.2672 10.9807 19.2699C10.976 19.2726 10.9721 19.2764 10.9694 19.2811L10.2171 20.5875C10.21 20.5999 10.2063 20.6138 10.2063 20.628C10.2063 20.6422 10.21 20.6561 10.2171 20.6684L17.9711 34.0959C17.974 34.1011 17.9782 34.1053 17.9832 34.1083C17.9883 34.1113 17.9941 34.1128 17.9999 34.1128C18.0058 34.1128 18.0116 34.1113 18.0167 34.1083C18.0217 34.1053 18.0259 34.1011 18.0288 34.0959L21.896 27.4015C21.8989 27.3965 21.9005 27.3908 21.9006 27.385C21.9007 27.3792 21.8992 27.3735 21.8963 27.3684C21.8935 27.3633 21.8894 27.3591 21.8843 27.3561C21.8793 27.3532 21.8736 27.3516 21.8678 27.3516H20.354C20.3421 27.3515 20.3303 27.3547 20.3199 27.3608C20.3095 27.3668 20.3009 27.3755 20.2949 27.386C19.7404 28.3521 19.1828 29.3177 18.6222 30.2829C18.5238 30.4521 18.4392 30.5655 18.3684 30.6232ZM15.719 24.7282C15.6984 24.7118 15.6756 24.7085 15.6508 24.7184C15.6448 24.7209 15.6395 24.7246 15.635 24.7292C15.6306 24.7339 15.6272 24.7395 15.6251 24.7455C15.623 24.7516 15.6222 24.758 15.6227 24.7643C15.6233 24.7707 15.6252 24.7768 15.6283 24.7823L16.3814 26.0895C16.3869 26.0991 16.3949 26.1071 16.4045 26.1126C16.4142 26.1182 16.4251 26.1211 16.4362 26.1211H31.971C31.9753 26.1211 31.9796 26.1201 31.9834 26.118C31.9871 26.1158 31.9903 26.1128 31.9925 26.1091C31.9947 26.1054 31.9959 26.1012 31.9959 26.0969C31.996 26.0926 31.9949 26.0883 31.9928 26.0845L28.0539 19.2663C28.0521 19.2633 28.0496 19.2607 28.0465 19.259C28.0434 19.2572 28.0399 19.2563 28.0364 19.2563C28.0328 19.2563 28.0293 19.2572 28.0262 19.259C28.0231 19.2607 28.0206 19.2633 28.0188 19.2663L27.2531 20.5952C27.2471 20.6053 27.244 20.6168 27.244 20.6285C27.244 20.6403 27.2471 20.6518 27.2531 20.662C27.8606 21.7111 28.4592 22.7583 29.0489 23.8036C29.3189 24.2831 28.9574 24.7303 28.4589 24.731C24.2125 24.7348 19.9659 24.7338 15.719 24.7282ZM10.3746 23.4837C10.3788 23.4836 10.383 23.4824 10.3866 23.4803C10.3903 23.4781 10.3933 23.475 10.3955 23.4714C10.3976 23.4677 10.3987 23.4635 10.3987 23.4593C10.3988 23.455 10.3977 23.4508 10.3956 23.4471L9.50268 21.8995C9.50054 21.8957 9.49742 21.8926 9.49366 21.8904C9.48989 21.8882 9.4856 21.887 9.48123 21.887C9.47687 21.887 9.47258 21.8882 9.46881 21.8904C9.46505 21.8926 9.46193 21.8957 9.45979 21.8995L8.56541 23.4471C8.56314 23.4509 8.56193 23.4552 8.5619 23.4596C8.56188 23.464 8.56304 23.4684 8.56527 23.4722C8.5675 23.476 8.57071 23.4792 8.57457 23.4813C8.57843 23.4834 8.5828 23.4845 8.58721 23.4844L10.3746 23.4837ZM25.6049 23.445C25.6027 23.4488 25.6016 23.4532 25.6016 23.4576C25.6015 23.4621 25.6027 23.4664 25.6049 23.4703C25.6071 23.4741 25.6103 23.4773 25.6141 23.4795C25.618 23.4818 25.6223 23.4829 25.6267 23.483L27.4134 23.4858C27.4178 23.4858 27.4222 23.4846 27.426 23.4823C27.4298 23.4801 27.433 23.4769 27.4352 23.4731C27.4374 23.4692 27.4386 23.4649 27.4386 23.4604C27.4386 23.456 27.4374 23.4517 27.4352 23.4478L26.545 21.9023C26.5428 21.8984 26.5396 21.8951 26.5357 21.8928C26.5318 21.8905 26.5274 21.8893 26.5229 21.8893C26.5184 21.8893 26.5139 21.8905 26.51 21.8928C26.5061 21.8951 26.5029 21.8984 26.5007 21.9023L25.6049 23.445ZM17.1689 27.3495C17.1627 27.3495 17.1567 27.3511 17.1513 27.3542C17.146 27.3573 17.1416 27.3618 17.1386 27.3671C17.1355 27.3725 17.1339 27.3785 17.1339 27.3847C17.1339 27.3908 17.1355 27.3969 17.1386 27.4022L17.9732 28.8422C17.9763 28.8476 17.9807 28.8521 17.9861 28.8552C17.9915 28.8584 17.9976 28.86 18.0038 28.86C18.01 28.86 18.0161 28.8584 18.0215 28.8552C18.0269 28.8521 18.0313 28.8476 18.0344 28.8422L18.8578 27.4029C18.8608 27.3976 18.8625 27.3915 18.8625 27.3854C18.8625 27.3792 18.8609 27.3732 18.8578 27.3678C18.8547 27.3625 18.8503 27.358 18.845 27.3549C18.8397 27.3518 18.8337 27.3502 18.8275 27.3502L17.1689 27.3495Z" fill="url(#paint0_linear_1_75)"/>
<defs>
<linearGradient id="paint0_linear_1_75" x1="18.0002" y1="0" x2="18.0002" y2="36" gradientUnits="userSpaceOnUse">
<stop stop-color="#7B2390"/>
<stop offset="1" stop-color="#CA34A9"/>
</linearGradient>
</defs>
</svg>
