<svg width="48" height="48" viewBox="0 0 48 48" fill="none" xmlns="http://www.w3.org/2000/svg">
<rect opacity="0.1" width="48" height="48" rx="10" fill="#9D2626"/>
<path d="M18 15.25C18 15.0511 17.921 14.8603 17.7803 14.7197C17.6397 14.579 17.4489 14.5 17.25 14.5C17.0511 14.5 16.8603 14.579 16.7197 14.7197C16.579 14.8603 16.5 15.0511 16.5 15.25V19.75C16.4998 20.6145 16.7983 21.4525 17.345 22.1222C17.8917 22.7919 18.653 23.2521 19.5 23.425V34.75C19.5 34.9489 19.579 35.1397 19.7197 35.2803C19.8603 35.421 20.0511 35.5 20.25 35.5C20.4489 35.5 20.6397 35.421 20.7803 35.2803C20.921 35.1397 21 34.9489 21 34.75V23.425C21.847 23.2521 22.6083 22.7919 23.155 22.1222C23.7017 21.4525 24.0002 20.6145 24 19.75V15.25C24 15.0511 23.921 14.8603 23.7803 14.7197C23.6397 14.579 23.4489 14.5 23.25 14.5C23.0511 14.5 22.8603 14.579 22.7197 14.7197C22.579 14.8603 22.5 15.0511 22.5 15.25V19.75C22.5002 20.2155 22.3561 20.6696 22.0875 21.0497C21.8188 21.4299 21.4389 21.7173 21 21.8725V15.25C21 15.0511 20.921 14.8603 20.7803 14.7197C20.6397 14.579 20.4489 14.5 20.25 14.5C20.0511 14.5 19.8603 14.579 19.7197 14.7197C19.579 14.8603 19.5 15.0511 19.5 15.25V21.8725C19.0611 21.7173 18.6812 21.4299 18.4125 21.0497C18.1439 20.6696 17.9998 20.2155 18 19.75V15.25ZM28.5 34.75V25H26.25C26.0511 25 25.8603 24.921 25.7197 24.7803C25.579 24.6397 25.5 24.4489 25.5 24.25V18.25C25.5 17.2555 25.989 16.3255 26.6565 15.6565C27.3255 14.989 28.2555 14.5 29.25 14.5C29.4489 14.5 29.6397 14.579 29.7803 14.7197C29.921 14.8603 30 15.0511 30 15.25V34.75C30 34.9489 29.921 35.1397 29.7803 35.2803C29.6397 35.421 29.4489 35.5 29.25 35.5C29.0511 35.5 28.8603 35.421 28.7197 35.2803C28.579 35.1397 28.5 34.9489 28.5 34.75Z" fill="#9D2626"/>
</svg>
