<svg width="48" height="48" viewBox="0 0 48 48" fill="none" xmlns="http://www.w3.org/2000/svg">
<rect opacity="0.1" width="48" height="48" rx="10" fill="#06992D"/>
<path d="M31.5 17.25H28.9012L27.6234 15.3338C27.555 15.2311 27.4623 15.147 27.3535 15.0888C27.2448 15.0306 27.1233 15.0001 27 15H21C20.8767 15.0001 20.7552 15.0306 20.6465 15.0888C20.5377 15.147 20.445 15.2311 20.3766 15.3338L19.0978 17.25H16.5C15.9033 17.25 15.331 17.4871 14.909 17.909C14.4871 18.331 14.25 18.9033 14.25 19.5V30C14.25 30.5967 14.4871 31.169 14.909 31.591C15.331 32.0129 15.9033 32.25 16.5 32.25H31.5C32.0967 32.25 32.669 32.0129 33.091 31.591C33.5129 31.169 33.75 30.5967 33.75 30V19.5C33.75 18.9033 33.5129 18.331 33.091 17.909C32.669 17.4871 32.0967 17.25 31.5 17.25ZM27.375 24.375C27.375 25.0425 27.1771 25.695 26.8062 26.25C26.4354 26.8051 25.9083 27.2376 25.2916 27.4931C24.6749 27.7485 23.9963 27.8154 23.3416 27.6852C22.6869 27.5549 22.0855 27.2335 21.6135 26.7615C21.1415 26.2895 20.8201 25.6881 20.6898 25.0334C20.5596 24.3787 20.6265 23.7001 20.8819 23.0834C21.1374 22.4667 21.5699 21.9396 22.125 21.5688C22.68 21.1979 23.3325 21 24 21C24.8951 21 25.7535 21.3556 26.3865 21.9885C27.0194 22.6214 27.375 23.4799 27.375 24.375Z" fill="#06992D"/>
</svg>
