<svg width="390" height="273" viewBox="0 0 390 273" fill="none" xmlns="http://www.w3.org/2000/svg">
<mask id="mask0_610_160" style="mask-type:alpha" maskUnits="userSpaceOnUse" x="0" y="0" width="390" height="273">
<rect width="390" height="273" fill="#D9D9D9"/>
</mask>
<g mask="url(#mask0_610_160)">
<path d="M-55.7276 192.767C-100.425 207.061 -97.6728 243.365 -90.8891 255.521C-63.1892 289.029 -30.6687 249.369 -10.3377 246.524C15.076 242.968 55.9634 257.018 75.4373 234.636C94.9111 212.254 80.0821 181.945 49.4927 157.592C18.9032 133.238 33.7801 132.747 32.9327 74.8027C32.2548 28.4472 -10.76 26.4248 -30.928 41.5831C-48.575 54.8466 -64.9528 80.7487 -39.2252 112.509C-7.06579 152.21 -2.04098 175.598 -55.7276 192.767Z" fill="url(#paint0_angular_610_160)" fill-opacity="0.2"/>
<path d="M303.755 242.979C256.832 243.671 248.919 279.209 251.879 292.812C268.649 332.922 311.289 304.42 331.569 307.605C356.92 311.586 391.962 336.908 417.098 321.149C442.235 305.39 436.851 272.08 414.656 239.89C392.461 207.7 406.839 211.552 422.862 155.861C435.681 111.308 395.109 96.8759 371.407 105.521C350.668 113.086 327.471 133.113 342.862 170.978C362.1 218.31 360.114 242.148 303.755 242.979Z" fill="url(#paint1_angular_610_160)" fill-opacity="0.2"/>
</g>
<defs>
<radialGradient id="paint0_angular_610_160" cx="0" cy="0" r="1" gradientUnits="userSpaceOnUse" gradientTransform="translate(-20.8017 158.737) rotate(13.5793) scale(103.54 129.055)">
<stop offset="0.0785972" stop-color="#7B2390"/>
<stop offset="0.438386" stop-color="#F146CC"/>
<stop offset="0.613412" stop-color="#BF25E3"/>
<stop offset="0.847376" stop-color="#541C9B"/>
</radialGradient>
<radialGradient id="paint1_angular_610_160" cx="0" cy="0" r="1" gradientUnits="userSpaceOnUse" gradientTransform="translate(347.061 220.564) rotate(30.4685) scale(103.54 129.055)">
<stop offset="0.0785972" stop-color="#7B2390"/>
<stop offset="0.438386" stop-color="#F146CC"/>
<stop offset="0.613412" stop-color="#BF25E3"/>
<stop offset="0.847376" stop-color="#541C9B"/>
</radialGradient>
</defs>
</svg>
