<svg width="48" height="48" viewBox="0 0 48 48" fill="none" xmlns="http://www.w3.org/2000/svg">
<rect opacity="0.1" width="48" height="48" rx="10" fill="#EBA500"/>
<path d="M32.25 18H28.5C28.5 16.8065 28.0259 15.6619 27.182 14.818C26.3381 13.9741 25.1935 13.5 24 13.5C22.8065 13.5 21.6619 13.9741 20.818 14.818C19.9741 15.6619 19.5 16.8065 19.5 18H15.75C15.3522 18 14.9706 18.158 14.6893 18.4393C14.408 18.7206 14.25 19.1022 14.25 19.5V30.75C14.25 31.1478 14.408 31.5294 14.6893 31.8107C14.9706 32.092 15.3522 32.25 15.75 32.25H32.25C32.6478 32.25 33.0294 32.092 33.3107 31.8107C33.592 31.5294 33.75 31.1478 33.75 30.75V19.5C33.75 19.1022 33.592 18.7206 33.3107 18.4393C33.0294 18.158 32.6478 18 32.25 18ZM21 21.75C21 21.9489 20.921 22.1397 20.7803 22.2803C20.6397 22.421 20.4489 22.5 20.25 22.5C20.0511 22.5 19.8603 22.421 19.7197 22.2803C19.579 22.1397 19.5 21.9489 19.5 21.75V20.25C19.5 20.0511 19.579 19.8603 19.7197 19.7197C19.8603 19.579 20.0511 19.5 20.25 19.5C20.4489 19.5 20.6397 19.579 20.7803 19.7197C20.921 19.8603 21 20.0511 21 20.25V21.75ZM24 15C24.7956 15 25.5587 15.3161 26.1213 15.8787C26.6839 16.4413 27 17.2044 27 18H21C21 17.2044 21.3161 16.4413 21.8787 15.8787C22.4413 15.3161 23.2044 15 24 15ZM28.5 21.75C28.5 21.9489 28.421 22.1397 28.2803 22.2803C28.1397 22.421 27.9489 22.5 27.75 22.5C27.5511 22.5 27.3603 22.421 27.2197 22.2803C27.079 22.1397 27 21.9489 27 21.75V20.25C27 20.0511 27.079 19.8603 27.2197 19.7197C27.3603 19.579 27.5511 19.5 27.75 19.5C27.9489 19.5 28.1397 19.579 28.2803 19.7197C28.421 19.8603 28.5 20.0511 28.5 20.25V21.75Z" fill="#EBA500"/>
</svg>
